<svg xmlns="http://www.w3.org/2000/svg" xmlns:xlink="http://www.w3.org/1999/xlink" version="1.1" x="0px" y="0px" viewBox="0 0 100 125" enable-background="new 0 0 100 100" xml:space="preserve"><path d="M74.254,31.548c-0.859-5.913-4.137-11.51-8.804-15.217c-0.096-0.076-0.194-0.133-0.295-0.177  C62.633,7.386,52.649,2.823,44.24,6.023c-4.168,1.586-7.358,4.898-9.009,9.009c-0.149,0.37-0.274,0.743-0.383,1.118  c-0.101,0.044-0.201,0.103-0.297,0.181c-5.996,4.846-9.114,12.054-9.114,19.693c0,3.648,0,7.297,0,10.945c0,12.245,0,24.49,0,36.735  c0,3.383,0,6.767,0,10.149c0,1.527,2.368,1.527,2.368,0c0-8.269,0-16.538,0-24.807c0-10.657,0-21.314,0-31.971  c0-1.701-0.006-3.391,0.252-5.081c0.712-4.657,2.939-8.9,6.21-12.217c-0.074,1.214-0.063,2.439-0.063,3.667c0,2.331,0,4.661,0,6.991  c0,2.069,0.012,4.088,0.53,6.116C36.492,43.44,42.98,48.214,50,48.278c8.76-0.081,15.797-7.258,15.797-15.996c0-2.65,0-5.3,0-7.949  c0-1.524,0.041-3.047-0.054-4.558c3.096,3.128,5.186,7.101,6.065,11.463c0.409,2.033,0.388,4.085,0.388,6.145  c0,5.646,0,11.291,0,16.937c0,4.142,0,8.283,0,12.425c0,0.27,0,0.539,0,0.809c0,8.737,0,17.474,0,26.211c0,0.03,0,0.061,0,0.091  c0,1.527,2.368,1.527,2.368,0c0-8.768,0-17.534,0-26.302c0-0.239,0-0.479,0-0.717c0-0.03,0-0.062,0-0.092c0-9.494,0-18.989,0-28.484  C74.564,36.005,74.58,33.791,74.254,31.548z M49.25,7.374c4.331-0.205,8.36,1.512,11.172,4.814c2.235,2.625,3.007,5.905,3.007,9.269  c0,2.89,0,5.779,0,8.668c0,0.516,0,1.031,0,1.547c-8.688,3.194-18.164,3.195-26.853,0.002c-0.003-0.177-0.005-0.353-0.005-0.53  c0-2.934,0-5.867,0-8.8c0-0.858-0.017-1.719,0.023-2.576c0.103-2.18,0.836-4.291,1.961-6.146C40.813,9.896,44.931,7.577,49.25,7.374  z M50,45.911c-4.395-0.041-8.516-2.161-11.04-5.776c-1.278-1.83-1.916-3.808-2.198-5.889c8.574,2.947,17.983,2.938,26.553-0.027  c-0.233,1.771-0.82,3.476-1.719,5.041C59.228,43.387,54.718,45.867,50,45.911z"/><path d="M58.768,66.368c-5.845,0-11.69,0-17.536,0c-1.527,0-1.527,2.368,0,2.368c5.845,0,11.691,0,17.536,0  C60.295,68.736,60.295,66.368,58.768,66.368z"/><path d="M55.845,78.059c-3.896,0-7.793,0-11.69,0c-1.527,0-1.527,2.367,0,2.367c3.896,0,7.793,0,11.69,0  C57.372,80.426,57.372,78.059,55.845,78.059z"/><text x="0" y="115" fill="#000000" font-size="5px" font-weight="bold" font-family="'Helvetica Neue', Helvetica, Arial-Unicode, Arial, Sans-serif">Created by Diana Favreau</text><text x="0" y="120" fill="#000000" font-size="5px" font-weight="bold" font-family="'Helvetica Neue', Helvetica, Arial-Unicode, Arial, Sans-serif">from the Noun Project</text></svg>