<svg xmlns="http://www.w3.org/2000/svg" version="1.1" viewBox="-5.0 -10.0 110.0 135.0">
 <g>
  <path d="m29.195 28.891v66.422c0 0.86328 0.69922 1.5625 1.5625 1.5625h38.484c0.86328 0 1.5625-0.69922 1.5625-1.5625v-66.422c0-5.5625-2.168-10.793-6.1016-14.727-0.20703-0.20703-0.43359-0.39844-0.65625-0.59766l0.082031-3.6367c0.007813-0.37109-0.11719-0.73438-0.35156-1.0195-1.4688-1.8047-4.8789-4.9414-11.164-5.6172-1.6875-0.22656-3.5938-0.21875-5.1953-0.003907-6.3516 0.67578-9.7578 3.8711-11.219 5.7148-0.22656 0.28516-0.34766 0.64062-0.33594 1.0078l0.082031 3.5859c-4.2852 3.9141-6.75 9.4336-6.75 15.297zm18.598-22.5c1.4102-0.1875 2.957-0.19531 4.4492 0.003906 4.7344 0.50781 7.4219 2.6094 8.75 4.0625l-0.47266 20.926c-0.13672 5.7617-4.7578 10.273-10.523 10.273s-10.387-4.5156-10.523-10.273l-0.47266-20.859c1.3203-1.4844 4.0039-3.625 8.793-4.1328zm-11.441 25.066c0.17578 7.4727 6.168 13.328 13.645 13.328 7.4766 0 13.469-5.8555 13.645-13.328l0.30469-13.414c2.4102 3.0938 3.7305 6.8672 3.7305 10.848v64.859h-35.359l0.003906-64.859c0-3.9844 1.3359-7.7852 3.7266-10.848z"/>
  <path d="m42.086 65.508h15.82c0.86328 0 1.5625-0.69922 1.5625-1.5625 0-0.86328-0.69922-1.5625-1.5625-1.5625h-15.82c-0.86328 0-1.5625 0.69922-1.5625 1.5625 0 0.86328 0.69922 1.5625 1.5625 1.5625z"/>
  <path d="m45.699 59.234h8.5938c0.86328 0 1.5625-0.69922 1.5625-1.5625s-0.69922-1.5625-1.5625-1.5625h-8.5938c-0.86328 0-1.5625 0.69922-1.5625 1.5625s0.69922 1.5625 1.5625 1.5625z"/>
 </g>
<text x="0.0" y="117.5" font-size="5.0" font-weight="bold" font-family="Arbeit Regular, Helvetica, Arial-Unicode, Arial, Sans-serif" fill="#000000">Created by nine</text><text x="0.0" y="122.5" font-size="5.0" font-weight="bold" font-family="Arbeit Regular, Helvetica, Arial-Unicode, Arial, Sans-serif" fill="#000000">from Noun Project</text></svg>